<?xml version="1.0" encoding="UTF-8" standalone="no"?>
<svg width="513px" height="513px" viewBox="0 0 513 513" version="1.1" xmlns="http://www.w3.org/2000/svg" xmlns:xlink="http://www.w3.org/1999/xlink" xmlns:sketch="http://www.bohemiancoding.com/sketch/ns">
    <title>Slice 1</title>
    <description>Created with Sketch (http://www.bohemiancoding.com/sketch)</description>
    <defs></defs>
    <g id="Page 1" fill="#D8D8D8" fill-rule="evenodd">
        <g>
            <g id="Group">
                <path d="M256.898438,0.21484375 C115.513435,0.21484375 0.8984375,114.829842 0.8984375,256.214844 C0.8984375,397.599854 115.513435,512.214844 256.898438,512.214844 C398.283447,512.214844 512.898438,397.599854 512.898438,256.214844 C512.898438,114.829842 398.283447,0.21484375 256.898438,0.21484375 L256.898438,0.21484375 L256.898438,0.21484375 Z M256.898438,0.21484375" id="Path" fill="#000000"></path>
                <path d="M261,462 C374.770664,462 467,369.770664 467,256 C467,142.229336 374.770664,50 261,50 C147.229336,50 55,142.229336 55,256 C55,369.770664 147.229336,462 261,462 Z M261,462" id="Oval 1" fill="#FFFFFF"></path>
                <g fill="#000000">
                    <path d="M341.572449,454.335846 C335.069458,457.085846 328.465454,459.499847 321.772461,461.581848 L321.77243,423.214844 C321.77243,403.047852 314.855438,388.214844 301.02243,378.714844 C309.689423,377.881836 317.64743,376.714844 324.89743,375.214844 C332.14743,373.714844 339.814423,371.547852 347.89743,368.714844 C355.980438,365.881836 363.230438,362.506836 369.64743,358.589844 C376.064423,354.672852 382.230438,349.589844 388.14743,343.339844 C394.064423,337.089844 399.02243,330.006836 403.02243,322.089844 C407.02243,314.172852 410.189423,304.672852 412.52243,293.589844 C414.855438,282.506836 416.02243,270.297852 416.02243,256.964844 C416.02243,231.131851 407.605438,209.131851 390.77243,190.964844 C398.439423,170.964844 397.605438,149.214844 388.27243,125.714844 L382.02243,124.964844 C377.689423,124.464844 369.89743,126.297844 358.64743,130.464844 C347.39743,134.631851 334.77243,141.464844 320.77243,150.964844 C300.939423,145.464844 280.355438,142.714844 259.02243,142.714844 C237.52243,142.714844 217.02243,145.464844 197.52243,150.964844 C188.689423,144.964844 180.314423,140.006851 172.39743,136.089844 C164.480438,132.172852 158.14743,129.506851 153.39743,128.089844 C148.64743,126.672844 144.230438,125.797844 140.14743,125.464844 C136.064423,125.131844 133.439423,125.047844 132.27243,125.214844 C131.105438,125.381844 130.27243,125.547844 129.77243,125.714844 C120.43943,149.381851 119.605431,171.131851 127.27243,190.964844 C110.43943,209.131851 102.02243,231.131851 102.02243,256.964844 C102.02243,270.297852 103.18943,282.506836 105.52243,293.589844 C107.855431,304.672852 111.02243,314.172852 115.02243,322.089844 C119.02243,330.006836 123.980431,337.089844 129.89743,343.339844 C135.814423,349.589844 141.980438,354.672852 148.39743,358.589844 C154.814423,362.506836 162.064423,365.881836 170.14743,368.714844 C178.230438,371.547852 185.89743,373.714844 193.14743,375.214844 C200.39743,376.714844 208.355438,377.881836 217.02243,378.714844 C203.355438,388.047852 196.52243,402.881836 196.52243,423.214844 L196.52243,462.329834 C188.973434,460.082855 181.532425,457.427856 174.222427,454.335846 C148.625427,443.50885 125.628426,428.000854 105.869431,408.242859 C86.1114349,388.483856 70.6024399,365.486847 59.7764359,339.888855 C48.5774384,313.409851 42.8984375,285.257843 42.8984375,256.214844 C42.8984375,227.171844 48.5774384,199.019836 59.7774353,172.539841 C70.6044388,146.942841 86.1124344,123.945839 105.870438,104.186844 C125.628433,84.4278488 148.626434,68.9198456 174.223434,58.0938454 C200.70343,46.8938446 228.855438,41.2148438 257.898438,41.2148438 C286.941437,41.2148438 315.093445,46.8938446 341.573456,58.0938454 C367.171448,68.920845 390.168457,84.4288406 409.927429,104.186844 C429.685425,123.944839 445.193451,146.942841 456.020447,172.539841 C467.219452,199.019836 472.898438,227.171844 472.898438,256.214844 C472.898438,285.257843 467.219452,313.409851 456.01944,339.889862 C445.192444,365.486847 429.684448,388.484833 409.926453,408.242859 C390.16745,428.000854 367.170441,443.50885 341.572449,454.335846 Z M341.572449,454.335846" id="Shape"></path>
                </g>
            </g>
        </g>
    </g>
</svg>