<?xml version="1.0" encoding="UTF-8" standalone="no"?>
<svg width="513px" height="510px" viewBox="0 0 513 510" version="1.1" xmlns="http://www.w3.org/2000/svg" xmlns:xlink="http://www.w3.org/1999/xlink" xmlns:sketch="http://www.bohemiancoding.com/sketch/ns">
    <title>Slice 1</title>
    <description>Created with Sketch (http://www.bohemiancoding.com/sketch)</description>
    <defs></defs>
    <g id="Page 1" fill="#D8D8D8" fill-rule="evenodd">
        <g id="Group" fill="#000000">
            <path d="M512.6875,256.007812 C512.6875,386.55481 414.968506,494.272827 288.6875,510.020813 L288.6875,320.007812 L376.6875,320.007812 L384.6875,256.007812 L288.6875,256.007812 L288.6875,224.007812 C288.6875,206.334808 303.014496,192.007812 320.6875,192.007812 L384.6875,192.007812 L384.6875,128.007812 L320.6875,128.007812 C267.667511,128.007812 224.6875,170.987808 224.6875,224.007812 L224.6875,256.007812 L176.6875,256.007812 L176.6875,320.007812 L224.6875,320.007812 L224.6875,446.507812 L224.6875,503.94281 L224.6875,510.020813 C98.4065018,494.272827 0.6875,386.55481 0.6875,256.007812 C0.6875,114.62281 115.302498,0.0078125 256.6875,0.0078125 C398.07251,0.0078125 512.6875,114.62281 512.6875,256.007812 Z M512.6875,256.007812" id="Shape"></path>
        </g>
    </g>
</svg>