<?xml version="1.0" encoding="UTF-8" standalone="no"?>
<svg width="513px" height="512px" viewBox="0 0 513 512" version="1.1" xmlns="http://www.w3.org/2000/svg" xmlns:xlink="http://www.w3.org/1999/xlink" xmlns:sketch="http://www.bohemiancoding.com/sketch/ns">
    <title>Slice 1</title>
    <description>Created with Sketch (http://www.bohemiancoding.com/sketch)</description>
    <defs></defs>
    <g id="Page 1" fill="#D8D8D8" fill-rule="evenodd">
        <g id="Group" fill="#000000">
            <g>
                <path d="M256.199219,-0.0078125 C114.814217,-0.0078125 0.19921875,114.607185 0.19921875,255.992188 C0.19921875,397.37719 114.814217,511.992188 256.199219,511.992188 C397.584221,511.992188 512.199219,397.37719 512.199219,255.992188 C512.199219,114.607185 397.584229,-0.0078125 256.199219,-0.0078125 L256.199219,-0.0078125 Z M160.199219,383.992188 C142.526218,383.992188 128.199219,369.665188 128.199219,351.992188 C128.199219,334.319187 142.526218,319.992188 160.199219,319.992188 C177.872219,319.992188 192.199219,334.319187 192.199219,351.992188 C192.199219,369.665188 177.872223,383.992188 160.199219,383.992188 L160.199219,383.992188 Z M248.199219,383.992188 C248.199219,317.824188 194.367218,263.992188 128.199219,263.992188 L128.199219,215.992188 C220.83522,215.992188 296.199219,291.356186 296.199219,383.992188 L248.199219,383.992188 L248.199219,383.992188 Z M344.199219,383.992188 C344.199219,326.297188 321.731218,272.054184 280.934219,231.257187 C240.137222,190.46019 185.895218,167.992188 128.199219,167.992188 L128.199219,119.992188 C198.716217,119.992188 265.012222,147.453188 314.876221,197.316185 C364.73822,247.179184 392.199219,313.475189 392.199219,383.992188 L344.199219,383.992188 L344.199219,383.992188 Z M344.199219,383.992188" id="Shape"></path>
            </g>
        </g>
    </g>
</svg>