<?xml version="1.0" encoding="UTF-8" standalone="no"?>
<svg width="513px" height="513px" viewBox="0 0 513 513" version="1.1" xmlns="http://www.w3.org/2000/svg" xmlns:xlink="http://www.w3.org/1999/xlink" xmlns:sketch="http://www.bohemiancoding.com/sketch/ns">
    <title>Slice 1</title>
    <description>Created with Sketch (http://www.bohemiancoding.com/sketch)</description>
    <defs></defs>
    <g id="Page 1" fill="#D8D8D8" fill-rule="evenodd">
        <g id="Group" fill="#000000">
            <path d="M256.976562,0.28125 C115.59156,0.28125 0.9765625,114.896248 0.9765625,256.28125 C0.9765625,397.666252 115.59156,512.28125 256.976562,512.28125 C398.361565,512.28125 512.976562,397.666252 512.976562,256.28125 C512.976562,114.896248 398.361572,0.28125 256.976562,0.28125 L256.976562,0.28125 Z M404.097565,180.825256 C404.243565,184.079256 404.318565,187.353256 404.318565,190.644257 C404.318565,290.955254 327.964568,406.626251 188.339561,406.626251 C145.471561,406.626251 105.571563,394.058251 71.9765618,372.519253 C77.914562,373.223253 83.9575618,373.582253 90.0845616,373.582253 C125.64956,373.582253 158.37956,361.444253 184.359563,341.085251 C151.142564,340.475251 123.109563,318.52425 113.447561,288.369251 C118.084561,289.253251 122.839561,289.730251 127.730561,289.730251 C134.65356,289.730251 141.35956,288.802251 147.729561,287.068251 C113.003559,280.092252 86.8365596,249.412253 86.8365596,212.634253 C86.8365596,212.314253 86.8365596,211.995253 86.8445596,211.679253 C97.0795592,217.364253 108.783559,220.779254 121.22656,221.173254 C100.856559,207.562254 87.4565591,184.327253 87.4565591,157.989256 C87.4565591,144.078255 91.200559,131.037256 97.734559,119.827257 C135.173558,165.754255 191.10856,195.973261 254.196565,199.14126 C252.902565,193.58226 252.231565,187.79026 252.231565,181.83926 C252.231565,139.919262 286.221566,105.933262 328.140561,105.933262 C349.973561,105.933262 369.702561,115.151262 383.549562,129.903261 C400.839562,126.499261 417.08656,120.182261 431.755563,111.483261 C426.087563,129.21026 414.050563,144.086262 398.379563,153.480263 C413.734563,151.646263 428.363563,147.564263 441.976563,141.528263 C431.801575,156.752243 418.931549,170.121246 404.097565,180.825256 L404.097565,180.825256 Z M404.097565,180.825256" id="Shape"></path>
        </g>
    </g>
</svg>